# xmcd
#
# Track frame offsets: 
#        150
#        13844
#        21943
#        37357
#        55340
#        66620
#        81161
#        93776
#        103590
#        120129
#        138414
#        158616
#        173377
#        193763
#        208285
#        224090
#        237177
#        250988
#        265189
#        278655
#
# Disc length: 4026 seconds
#
# Revision: 3
# Processed by: cddbd v1.5.2PL0 Copyright (c) Steve Scherf et al.
# Submitted via: ExactAudioCopy v0.99pb5
#
DISCID=230fb814
DTITLE=Various Artist - American Folk Blues Festival '65
DYEAR=1995
DGENRE=Blues
TTITLE0=Mississippi Fred McDowell - Highway 61
TTITLE1=J. B. Lenoir - Slow Down Woman
TTITLE2=Big Walter Horton - Blues Harp Shuffle
TTITLE3=Big Walter Horton - Christine
TTITLE4=Roosevelt Sykes - Come On Back Home
TTITLE5=Eddie Boyd - Five Long Years
TTITLE6=Eddie Boyd - The Big Question
TTITLE7=Jimmie Lee Robinson - Rosa Lee
TTITLE8=John Lee Hooker - King of the World
TTITLE9=John Lee Hooker - Della Mae
TTITLE10=Buddy Guy - First Time I Met The Blues
TTITLE11=Big Mama Thornton - Hound Dog
TTITLE12=Doctor Ross - My Black Name Is Ringing
TTITLE13=John Lee Hooker - Della Mae (alt take)
TTITLE14=Big Mama Thornton - Hound Dog (alt take)
TTITLE15=Buddy Guy - South Side Jump
TTITLE16=J.B. Lenoir - If I Get Lucky
TTITLE17=Mississippi Fred McDowell - Got a Letter This Morning
TTITLE18=Roosevelt Sykes - Sail On
TTITLE19=Doctor Ross - Farewell Baby
EXTD=
EXTT0=
EXTT1=
EXTT2=
EXTT3=
EXTT4=
EXTT5=
EXTT6=
EXTT7=
EXTT8=
EXTT9=
EXTT10=
EXTT11=
EXTT12=
EXTT13=
EXTT14=
EXTT15=
EXTT16=
EXTT17=
EXTT18=
EXTT19=
PLAYORDER=
